<svg id="Layer_1" data-name="Layer 1" xmlns="http://www.w3.org/2000/svg" viewBox="0 0 300 300"><defs><style>.cls-1{fill:#22b24c;}</style></defs><title>STNG_Light_bg</title><path class="cls-1" d="M160.06,218.66c0-6.11,0-12.21,0-18.32,0-4.32,1.78-6.48,6-7.25,14.14-2.56,25-9.82,32-22.46,14-25.17-.75-57.22-29-63.21L167,107c-5.61-1.14-6.94-2.76-6.94-8.54q0-17.58,0-35.14c0-5.58,2.35-8,7.88-7.72a82.57,82.57,0,0,1,28.67,7c30.75,13.6,50.19,36.82,56.52,69.78,5.7,29.68-1.68,56.56-21.49,79.64-14.18,16.53-32.26,26.63-53.53,31a71.17,71.17,0,0,1-10.69,1.35c-4.67.24-7.31-2.43-7.35-7.08C160,231.08,160.06,224.87,160.06,218.66Z"/><path class="cls-1" d="M142.32,150v84.43c0,1,0,2,0,3a6.17,6.17,0,0,1-3.93,6.45c-2.78,1.21-5.28.56-7.51-1.37-.45-.39-.88-.82-1.31-1.24q-39.55-39.51-79.11-79c-3.57-3.56-5.64-7.61-5.45-12.82a15,15,0,0,1,4.47-10.47q7.22-7.24,14.46-14.45,33-32.94,65.91-65.87c1.75-1.74,3.49-3.28,6.21-3.08a6.41,6.41,0,0,1,6.21,6.1c.08,1.2,0,2.4,0,3.61Z"/></svg>